<svg width="32" height="32" viewBox="0 0 32 32" fill="none" xmlns="http://www.w3.org/2000/svg">
<path d="M26 22H14V24H26V22Z" fill="black"/>
<path d="M26 9H14V11H26V9Z" fill="black"/>
<path d="M10 13V5H8V6H6V8H8V13H6V15H8H10H12V13H10Z" fill="black"/>
<path d="M12 27H6V23C6 22.4696 6.21071 21.9609 6.58579 21.5858C6.96086 21.2107 7.46957 21 8 21H10V19H6V17H10C10.5304 17 11.0391 17.2107 11.4142 17.5858C11.7893 17.9609 12 18.4696 12 19V21C12 21.5304 11.7893 22.0391 11.4142 22.4142C11.0391 22.7893 10.5304 23 10 23H8V25H12V27Z" fill="black"/>
</svg>
