<svg width="32" height="32" viewBox="0 0 32 32" fill="none" xmlns="http://www.w3.org/2000/svg">
<path d="M23 18C21.1416 18 19.5894 19.2798 19.1421 21H16.4141L11 15.5859C10.6223 15.208 10.1201 15 9.5857 15H5V17H9.5859L15 22.4141C15.3777 22.792 15.8799 23 16.4143 23H19.1421C19.5894 24.7202 21.1416 26 23 26C25.2056 26 27 24.2056 27 22C27 19.7944 25.2056 18 23 18ZM23 24C21.8972 24 21 23.1025 21 22C21 20.8975 21.8972 20 23 20C24.1028 20 25 20.8975 25 22C25 23.1025 24.1028 24 23 24Z" fill="black"/>
<path d="M23 6C21.1416 6 19.5894 7.2798 19.1421 9H16.4143C15.8799 9 15.3777 9.208 15 9.5859L11.4136 13.1723L12.8277 14.5864L16.4144 11H19.1422C19.5895 12.7202 21.1417 14 23.0001 14C25.2057 14 27.0001 12.2056 27.0001 10C27.0001 7.7944 25.2056 6 23 6ZM23 12C21.8972 12 21 11.1025 21 10C21 8.8975 21.8972 8 23 8C24.1028 8 25 8.8975 25 10C25 11.1025 24.1028 12 23 12Z" fill="black"/>
</svg>
