<svg width="32" height="32" viewBox="0 0 32 32" fill="none" xmlns="http://www.w3.org/2000/svg">
<rect x="24" y="5" width="2" height="2" fill="#13100A"/>
<rect x="27" y="5" width="2" height="2" fill="#13100A"/>
<rect x="27" y="8" width="2" height="2" fill="#13100A"/>
<rect x="27" y="11" width="2" height="2" fill="#13100A"/>
<rect x="27" y="14" width="2" height="2" fill="#13100A"/>
<rect x="27" y="17" width="2" height="2" fill="#13100A"/>
<rect x="27" y="20" width="2" height="2" fill="#13100A"/>
<rect x="27" y="23" width="2" height="2" fill="#13100A"/>
<rect x="27" y="26" width="2" height="2" fill="#13100A"/>
<rect x="24" y="26" width="2" height="2" fill="#13100A"/>
<rect x="21" y="26" width="2" height="2" fill="#13100A"/>
<rect x="18" y="26" width="2" height="2" fill="#13100A"/>
<rect x="15" y="26" width="2" height="2" fill="#13100A"/>
<rect x="15" y="23" width="2" height="2" fill="#13100A"/>
<rect x="15" y="20" width="2" height="2" fill="#13100A"/>
<rect x="15" y="8" width="2" height="2" fill="#13100A"/>
<path d="M4 6H16L22 3V24L16 27H4V6Z" stroke="#13100A" stroke-width="2"/>
<path d="M15 15H12C10.8954 15 10 15.8954 10 17V22" stroke="#13100A" stroke-width="2" stroke-linejoin="round"/>
<path d="M16 15.5858V14.4142L16.5858 15L16 15.5858Z" stroke="black" stroke-width="2"/>
</svg>
