<?xml version="1.0" encoding="UTF-8"?>
<svg xmlns="http://www.w3.org/2000/svg" xmlns:xlink="http://www.w3.org/1999/xlink" width="32px" height="32px" viewBox="0 0 32 32" version="1.1">
<g id="surface1">
<path style=" stroke:none;fill-rule:nonzero;fill:rgb(0%,0%,0%);fill-opacity:1;" d="M 29.410156 21.671875 L 10.339844 2.578125 C 9.964844 2.203125 9.457031 1.992188 8.925781 1.992188 C 8.394531 1.992188 7.886719 2.203125 7.511719 2.578125 L 2.589844 7.511719 C 1.816406 8.289062 1.816406 9.550781 2.589844 10.328125 L 21.660156 29.421875 C 22.039062 29.792969 22.546875 30.003906 23.078125 30 C 23.609375 30 24.113281 29.792969 24.488281 29.421875 L 29.410156 24.488281 C 30.183594 23.710938 30.183594 22.449219 29.410156 21.671875 Z M 23.078125 28 L 4 8.921875 L 8.921875 4 L 12.710938 7.789062 L 10.460938 10 L 11.871094 11.410156 L 14.121094 9.199219 L 18.25 13.328125 L 16 15.578125 L 17.421875 17 L 19.671875 14.75 L 23.800781 18.878906 L 21.550781 21.128906 L 23 22.539062 L 25.25 20.289062 L 28 23.078125 Z M 23.078125 28 "/>
</g>
</svg>
