<?xml version="1.0" encoding="UTF-8"?>
<svg xmlns="http://www.w3.org/2000/svg" xmlns:xlink="http://www.w3.org/1999/xlink" width="150px" height="64px" viewBox="0 0 150 64" version="1.1">
<g id="surface1">
<path style=" stroke:none;fill-rule:evenodd;fill:rgb(0%,0%,0%);fill-opacity:1;" d="M 50.9375 46.789062 C 50.9375 31.914062 50.9375 31.914062 50.9375 31.914062 C 50.9375 23.28125 50.9375 23.28125 50.9375 23.28125 C 75.488281 23.28125 75.488281 23.28125 75.488281 23.28125 C 77.40625 23.28125 80.253906 23.347656 81.578125 21.886719 C 82.636719 20.753906 82.835938 19.296875 82.769531 17.699219 C 82.703125 16.171875 82.105469 14.511719 81.179688 13.652344 C 80.1875 12.789062 78.796875 12.324219 76.878906 12.324219 C 50.9375 12.390625 50.9375 12.390625 50.9375 12.390625 C 50.9375 1.566406 50.9375 1.566406 50.9375 1.566406 C 78.730469 1.566406 78.730469 1.566406 78.730469 1.566406 C 81.378906 1.566406 83.761719 1.964844 85.746094 2.894531 C 87.730469 3.757812 89.386719 4.886719 90.710938 6.347656 C 92.101562 7.742188 93.09375 9.335938 93.753906 11.195312 C 94.414062 12.988281 94.746094 14.847656 94.746094 16.707031 C 94.746094 18.164062 94.546875 19.5625 94.148438 20.886719 C 93.753906 22.285156 93.226562 23.546875 92.496094 24.808594 C 91.769531 26.003906 90.84375 27.128906 89.78125 28.0625 C 88.65625 29.054688 87.46875 29.851562 86.011719 30.519531 C 95.9375 46.789062 95.9375 46.789062 95.9375 46.789062 C 82.769531 46.789062 82.769531 46.789062 82.769531 46.789062 C 74.828125 34.101562 74.828125 34.101562 74.828125 34.101562 C 63.378906 34.101562 63.378906 34.101562 63.378906 34.101562 C 63.445312 46.789062 63.445312 46.789062 63.445312 46.789062 Z M 50.9375 46.789062 "/>
<path style=" stroke:none;fill-rule:evenodd;fill:rgb(0%,0%,0%);fill-opacity:1;" d="M 19.632812 1.722656 L 25.664062 23.300781 L 6.5625 23.300781 L 0 46.945312 L 12.789062 46.945312 L 16.449219 34.046875 L 28.652344 34.046875 L 32.28125 46.945312 L 45.15625 46.945312 L 32.421875 1.722656 Z M 19.632812 1.722656 "/>
<path style=" stroke:none;fill-rule:evenodd;fill:rgb(0%,0%,0%);fill-opacity:1;" d="M 148.28125 14.339844 C 147.15625 11.351562 145.5 8.832031 143.316406 6.707031 C 141.199219 4.582031 138.617188 2.921875 135.707031 1.726562 C 132.730469 0.597656 129.421875 0 125.714844 0 C 122.074219 0 118.765625 0.597656 115.855469 1.726562 C 112.878906 2.921875 110.296875 4.582031 108.179688 6.707031 C 106.0625 8.832031 104.472656 11.351562 103.28125 14.339844 C 102.15625 17.328125 101.5625 20.648438 101.5625 24.230469 C 101.5625 27.949219 102.15625 31.269531 103.28125 34.257812 C 104.472656 37.246094 106.0625 39.769531 108.179688 41.960938 C 110.296875 44.082031 112.878906 45.742188 115.855469 46.871094 C 118.765625 48.066406 122.074219 48.664062 125.714844 48.664062 C 129.421875 48.664062 132.730469 48.066406 135.707031 46.871094 C 138.617188 45.742188 141.199219 44.082031 143.316406 41.960938 C 145.5 39.769531 147.15625 37.246094 148.28125 34.257812 C 149.46875 31.269531 150 27.949219 150 24.230469 C 150 20.648438 149.46875 17.328125 148.28125 14.339844 Z M 136.632812 29.808594 C 136.105469 31.46875 135.375 32.863281 134.382812 33.992188 C 133.390625 35.1875 132.132812 36.050781 130.679688 36.714844 C 129.289062 37.378906 127.566406 37.644531 125.648438 37.644531 C 121.875 37.644531 119.03125 36.449219 117.113281 33.992188 C 115.195312 31.601562 114.203125 28.347656 114.203125 24.300781 C 114.203125 20.316406 115.195312 17.128906 117.113281 14.671875 C 119.03125 12.214844 121.875 10.953125 125.648438 10.953125 C 127.566406 10.953125 129.289062 11.285156 130.679688 11.949219 C 132.132812 12.546875 133.390625 13.476562 134.382812 14.671875 C 135.375 15.867188 136.105469 17.261719 136.632812 18.921875 C 137.164062 20.515625 137.359375 22.375 137.359375 24.300781 C 137.359375 26.355469 137.164062 28.152344 136.632812 29.808594 Z M 136.632812 29.808594 "/>
<path style=" stroke:none;fill-rule:evenodd;fill:rgb(0%,0%,0%);fill-opacity:1;" d="M 1.707031 62.601562 C 0.777344 61.667969 0.3125 60.46875 0.3125 59.070312 C 0.3125 57.605469 0.777344 56.472656 1.707031 55.539062 C 2.636719 54.609375 3.765625 54.140625 5.097656 54.140625 C 6.292969 54.140625 7.355469 54.476562 8.21875 55.140625 C 8.21875 55.808594 8.21875 55.808594 8.21875 55.808594 C 7.289062 55.074219 6.292969 54.742188 5.164062 54.742188 C 3.964844 54.742188 2.96875 55.140625 2.171875 55.941406 C 1.375 56.808594 0.976562 57.804688 0.976562 59.070312 C 0.976562 60.269531 1.375 61.335938 2.171875 62.136719 C 2.96875 62.933594 3.964844 63.402344 5.097656 63.402344 C 6.359375 63.402344 7.355469 63 8.085938 62.269531 C 8.085938 58.339844 8.085938 58.339844 8.085938 58.339844 C 8.75 58.339844 8.75 58.339844 8.75 58.339844 C 8.75 62.46875 8.75 62.46875 8.75 62.46875 C 7.820312 63.464844 6.625 64 5.097656 64 C 3.765625 64 2.636719 63.535156 1.707031 62.601562 Z M 1.707031 62.601562 "/>
<path style=" stroke:none;fill-rule:evenodd;fill:rgb(0%,0%,0%);fill-opacity:1;" d="M 35.625 63.6875 C 35.625 54.296875 35.625 54.296875 35.625 54.296875 C 39.828125 54.296875 39.828125 54.296875 39.828125 54.296875 C 41.601562 54.296875 42.648438 55.28125 42.648438 56.792969 C 42.648438 58.105469 41.796875 59.089844 40.351562 59.222656 C 43.4375 63.6875 43.4375 63.6875 43.4375 63.6875 C 42.648438 63.6875 42.648438 63.6875 42.648438 63.6875 C 39.628906 59.289062 39.628906 59.289062 39.628906 59.289062 C 36.28125 59.289062 36.28125 59.289062 36.28125 59.289062 C 36.28125 63.6875 36.28125 63.6875 36.28125 63.6875 Z M 36.28125 58.695312 C 39.761719 58.695312 39.761719 58.695312 39.761719 58.695312 C 41.203125 58.695312 42.058594 58.042969 42.058594 56.792969 C 42.058594 55.609375 41.203125 54.890625 39.761719 54.890625 C 36.28125 54.890625 36.28125 54.890625 36.28125 54.890625 Z M 36.28125 58.695312 "/>
<path style=" stroke:none;fill-rule:evenodd;fill:rgb(0%,0%,0%);fill-opacity:1;" d="M 70.539062 62.601562 C 69.617188 61.601562 69.21875 60.46875 69.21875 59.070312 C 69.21875 57.671875 69.617188 56.472656 70.539062 55.539062 C 71.398438 54.609375 72.519531 54.140625 73.90625 54.140625 C 75.226562 54.140625 76.28125 54.609375 77.207031 55.539062 C 78.132812 56.472656 78.59375 57.671875 78.59375 59.070312 C 78.59375 60.46875 78.132812 61.601562 77.207031 62.601562 C 76.28125 63.535156 75.226562 64 73.90625 64 C 72.519531 64 71.398438 63.535156 70.539062 62.601562 Z M 73.90625 63.402344 C 75.027344 63.402344 75.953125 62.933594 76.746094 62.136719 C 77.539062 61.335938 77.933594 60.269531 77.933594 59.070312 C 77.933594 57.804688 77.539062 56.808594 76.746094 55.941406 C 75.953125 55.140625 75.027344 54.742188 73.90625 54.742188 C 72.71875 54.742188 71.792969 55.140625 71 55.941406 C 70.210938 56.808594 69.8125 57.804688 69.8125 59.070312 C 69.8125 60.269531 70.210938 61.335938 71 62.136719 C 71.792969 62.933594 72.71875 63.402344 73.90625 63.402344 Z M 73.90625 63.402344 "/>
<path style=" stroke:none;fill-rule:evenodd;fill:rgb(0%,0%,0%);fill-opacity:1;" d="M 106.210938 62.871094 C 105.550781 62.140625 105.15625 61.078125 105.15625 59.746094 C 105.15625 54.296875 105.15625 54.296875 105.15625 54.296875 C 105.8125 54.296875 105.8125 54.296875 105.8125 54.296875 C 105.8125 59.746094 105.8125 59.746094 105.8125 59.746094 C 105.8125 62.007812 107 63.402344 108.90625 63.402344 C 110.878906 63.402344 112.0625 62.007812 112.0625 59.746094 C 112.0625 54.296875 112.0625 54.296875 112.0625 54.296875 C 112.65625 54.296875 112.65625 54.296875 112.65625 54.296875 C 112.65625 59.746094 112.65625 59.746094 112.65625 59.746094 C 112.65625 61.078125 112.328125 62.140625 111.667969 62.871094 C 110.945312 63.601562 110.023438 64 108.90625 64 C 107.789062 64 106.867188 63.601562 106.210938 62.871094 Z M 106.210938 62.871094 "/>
<path style=" stroke:none;fill-rule:evenodd;fill:rgb(0%,0%,0%);fill-opacity:1;" d="M 139.6875 63.6875 C 139.6875 54.296875 139.6875 54.296875 139.6875 54.296875 C 143.585938 54.296875 143.585938 54.296875 143.585938 54.296875 C 145.4375 54.296875 146.5625 55.347656 146.5625 56.859375 C 146.5625 58.367188 145.4375 59.355469 143.585938 59.355469 C 140.28125 59.355469 140.28125 59.355469 140.28125 59.355469 C 140.28125 63.6875 140.28125 63.6875 140.28125 63.6875 Z M 140.28125 58.761719 C 143.585938 58.761719 143.585938 58.761719 143.585938 58.761719 C 145.042969 58.761719 145.902344 58.105469 145.902344 56.859375 C 145.902344 55.609375 145.042969 54.890625 143.585938 54.890625 C 140.28125 54.890625 140.28125 54.890625 140.28125 54.890625 Z M 140.28125 58.761719 "/>
</g>
</svg>
