<?xml version="1.0" encoding="UTF-8"?>
<svg xmlns="http://www.w3.org/2000/svg" xmlns:xlink="http://www.w3.org/1999/xlink" width="16px" height="16px" viewBox="0 0 16 15" version="1.1">
<defs>
<clipPath id="clip1">
  <path d="M 0.078125 0 L 15.921875 0 L 15.921875 15 L 0.078125 15 Z M 0.078125 0 "/>
</clipPath>
</defs>
<g id="surface1">
<g clip-path="url(#clip1)" clip-rule="nonzero">
<path style=" stroke:none;fill-rule:evenodd;fill:rgb(0%,0%,0%);fill-opacity:1;" d="M 1.191406 1.054688 C 0.078125 2.109375 0.078125 3.804688 0.078125 7.199219 L 0.078125 7.800781 C 0.078125 11.195312 0.078125 12.890625 1.191406 13.945312 C 2.304688 15 4.097656 15 7.683594 15 L 8.316406 15 C 11.902344 15 13.695312 15 14.808594 13.945312 C 15.921875 12.890625 15.921875 11.195312 15.921875 7.800781 L 15.921875 7.199219 C 15.921875 3.804688 15.921875 2.109375 14.808594 1.054688 C 13.695312 0 11.902344 0 8.316406 0 L 7.683594 0 C 4.097656 0 2.304688 0 1.191406 1.054688 Z M 2.753906 4.5625 C 2.839844 8.460938 4.898438 10.804688 8.507812 10.804688 L 8.714844 10.804688 L 8.714844 8.574219 C 10.039062 8.699219 11.042969 9.617188 11.445312 10.804688 L 13.320312 10.804688 C 12.804688 9.03125 11.453125 8.050781 10.605469 7.675781 C 11.453125 7.210938 12.640625 6.085938 12.925781 4.5625 L 11.222656 4.5625 C 10.851562 5.800781 9.753906 6.925781 8.714844 7.03125 L 8.714844 4.5625 L 7.011719 4.5625 L 7.011719 8.886719 C 5.953125 8.636719 4.621094 7.425781 4.5625 4.5625 Z M 2.753906 4.5625 "/>
</g>
</g>
</svg>
