<svg version="1.1" xmlns="http://www.w3.org/2000/svg" xmlns:xlink="http://www.w3.org/1999/xlink" width="32" height="32" viewBox="0,0,256,256"><g fill="#2d3c84" fill-rule="nonzero" stroke="none" stroke-width="1" stroke-linecap="butt" stroke-linejoin="miter" stroke-miterlimit="10" stroke-dasharray="" stroke-dashoffset="0" font-family="none" font-weight="none" font-size="none" text-anchor="none" style="mix-blend-mode: normal"><g transform="translate(-0.0004,0) scale(8,8)"><path d="M23,18c-1.8584,0 -3.4106,1.2798 -3.8579,3h-2.728l-5.4141,-5.4141c-0.3777,-0.3779 -0.8799,-0.5859 -1.4143,-0.5859h-4.5857v2h4.5859l5.4141,5.4141c0.3777,0.3779 0.8799,0.5859 1.4143,0.5859h2.7278c0.4473,1.7202 1.9995,3 3.8579,3c2.2056,0 4,-1.7944 4,-4c0,-2.2056 -1.7944,-4 -4,-4zM23,24c-1.1028,0 -2,-0.8975 -2,-2c0,-1.1025 0.8972,-2 2,-2c1.1028,0 2,0.8975 2,2c0,1.1025 -0.8972,2 -2,2z"></path><path d="M23,6c-1.8584,0 -3.4106,1.2798 -3.8579,3h-2.7278c-0.5344,0 -1.0366,0.208 -1.4143,0.5859l-3.5864,3.5864l1.4141,1.4141l3.5867,-3.5864h2.7278c0.4473,1.7202 1.9995,3 3.8579,3c2.2056,0 4,-1.7944 4,-4c0,-2.2056 -1.7945,-4 -4.0001,-4zM23,12c-1.1028,0 -2,-0.8975 -2,-2c0,-1.1025 0.8972,-2 2,-2c1.1028,0 2,0.8975 2,2c0,1.1025 -0.8972,2 -2,2z"></path></g></g></svg>