<svg version="1.1" xmlns="http://www.w3.org/2000/svg" xmlns:xlink="http://www.w3.org/1999/xlink" width="32" height="32" viewBox="0,0,256,256"><g fill="#2d3c84" fill-rule="nonzero" stroke="none" stroke-width="1" stroke-linecap="butt" stroke-linejoin="miter" stroke-miterlimit="10" stroke-dasharray="" stroke-dashoffset="0" font-family="none" font-weight="none" font-size="none" text-anchor="none" style="mix-blend-mode: normal"><g transform="scale(8,8)"><path d="M26,22h-12v2h12z"></path><path d="M26,9h-12v2h12z"></path><path d="M10,13v-8h-2v1h-2v2h2v5h-2v2h2h2h2v-2z"></path><path d="M12,27h-6v-4c0,-0.5304 0.21071,-1.0391 0.58579,-1.4142c0.37507,-0.3751 0.88378,-0.5858 1.41421,-0.5858h2v-2h-4v-2h4c0.5304,0 1.0391,0.2107 1.4142,0.5858c0.3751,0.3751 0.5858,0.8838 0.5858,1.4142v2c0,0.5304 -0.2107,1.0391 -0.5858,1.4142c-0.3751,0.3751 -0.8838,0.5858 -1.4142,0.5858h-2v2h4z"></path></g></g></svg>