<svg version="1.1" xmlns="http://www.w3.org/2000/svg" xmlns:xlink="http://www.w3.org/1999/xlink" width="32" height="32" viewBox="0,0,256,256"><g fill="none" fill-rule="nonzero" stroke="none" stroke-width="1" stroke-linecap="butt" stroke-linejoin="miter" stroke-miterlimit="10" stroke-dasharray="" stroke-dashoffset="0" font-family="none" font-weight="none" font-size="none" text-anchor="none" style="mix-blend-mode: normal"><g><g><g transform="scale(8,8)"><circle cx="21" cy="21" r="2" fill="#2d3c84"></circle><circle cx="7" cy="7" r="2" fill="#2d3c84"></circle><path d="M27,31c-2.20914,0 -4,-1.79086 -4,-4c0,-2.20914 1.79086,-4 4,-4c2.20914,0 4,1.79086 4,4c-0.00648,2.20645 -1.79355,3.99352 -4,4zM27,25c-1.10457,0 -2,0.89543 -2,2c0,1.10457 0.89543,2 2,2c1.10457,0 2,-0.89543 2,-2c-0.00324,-1.10322 -0.89678,-1.99676 -2,-2z" fill="#2d3c84"></path><path d="M30,16c-0.02263,-7.72259 -6.27741,-13.97737 -14,-14c-2.38874,-0.03409 -4.74096,0.58855 -6.8,1.8l1.1,1.7c0.78168,-0.37571 1.58281,-0.70951 2.4,-1c-1.65311,3.26191 -2.57454,6.84526 -2.7,10.5h-6c0.11205,-1.65116 0.59028,-3.25666 1.4,-4.7l-1.5,-1.3c-1.24429,2.12297 -1.90014,4.53926 -1.9,7c-0.00045,3.71317 1.4744,7.27439 4.10001,9.89999c2.62561,2.62561 6.18682,4.10046 9.89999,4.10001c1.78268,0.0168 3.55071,-0.3232 5.2,-1l-0.6,-1.9c-1.63952,0.7011 -3.42022,1.0093 -5.2,0.9v0c-2.13252,-3.27993 -3.30981,-7.0888 -3.4,-11h17.9c0.08266,-0.32654 0.11636,-0.66355 0.1,-1zM12.8,27.6v0c-1.98854,-0.59603 -3.80573,-1.65892 -5.3,-3.1c-1.98413,-2.03027 -3.21843,-4.6752 -3.5,-7.5h6c0.13761,3.69697 1.09393,7.31734 2.8,10.6zM12,15c0.07954,-3.89849 1.22045,-7.70152 3.3,-11h1.4c2.07955,3.29848 3.22046,7.10151 3.3,11zM22,15c-0.07607,-3.70587 -1.03603,-7.33999 -2.8,-10.6c4.81687,1.38836 8.27759,5.60487 8.7,10.6z" fill="#2d3c84"></path><rect x="0" y="0" width="32" height="32" id="_Transparent_Rectangle_" fill="none"></rect></g></g></g></g></svg>