<svg width="32" height="32" viewBox="0 0 32 32" fill="none" xmlns="http://www.w3.org/2000/svg">
<path d="M21.623 11C21.7068 11.3783 21.623 11.7563 21.2439 11.7988L20.6142 11.9243V21.1628C20.0673 21.4568 19.5631 21.6248 19.143 21.6248C18.4703 21.6248 18.3018 21.4147 17.7979 20.7851L13.6784 14.318V20.5752L14.982 20.8692C14.982 20.8692 14.982 21.6248 13.9303 21.6248L11.031 21.7929C10.9467 21.6248 11.031 21.2052 11.325 21.1211L12.0816 20.9115V12.6385L11.0311 12.5543C10.9469 12.176 11.1567 11.6305 11.7455 11.5881L14.8559 11.3785L19.143 17.9297V12.1343L18.0499 12.0088C17.966 11.5463 18.3018 11.2105 18.7221 11.1688L21.623 11Z" fill="white"/>
<path d="M15.9411 28C20.9339 28 25.4743 25.3887 27.9916 21.2117V25H30V18H23V20H26.3729C24.238 23.6848 20.2916 26 15.9411 26C12.7226 26 9.69618 24.752 7.42005 22.4854L6 23.8995C8.65512 26.544 12.1857 28 15.9411 28Z" fill="white"/>
<path d="M16.0589 4C11.0661 4 6.52565 6.6113 4.00841 10.7883V7H2V14H9V12H5.62709C7.76203 8.3152 11.7084 6 16.0589 6C19.2774 6 22.3038 7.248 24.58 9.5146L26 8.1005C23.3449 5.456 19.8143 4 16.0589 4Z" fill="white"/>
</svg>
