<svg version="1.1" xmlns="http://www.w3.org/2000/svg" xmlns:xlink="http://www.w3.org/1999/xlink" width="32" height="32" viewBox="0,0,256,256"><g fill="#2d3c84" fill-rule="nonzero" stroke="none" stroke-width="1" stroke-linecap="butt" stroke-linejoin="miter" stroke-miterlimit="10" stroke-dasharray="" stroke-dashoffset="0" font-family="none" font-weight="none" font-size="none" text-anchor="none" style="mix-blend-mode: normal"><g transform="scale(8,8)"><path d="M21.623,11c0.0838,0.3783 0,0.7563 -0.3791,0.7988l-0.6297,0.1255v9.2385c-0.5469,0.294 -1.0511,0.462 -1.4712,0.462c-0.6727,0 -0.8412,-0.2101 -1.3451,-0.8397l-4.1195,-6.4671v6.2572l1.3036,0.294c0,0 0,0.7556 -1.0517,0.7556l-2.8993,0.1681c-0.0843,-0.1681 0,-0.5877 0.294,-0.6718l0.7566,-0.2096v-8.273l-1.0505,-0.0842c-0.0842,-0.3783 0.1256,-0.9238 0.7144,-0.9662l3.1104,-0.2096l4.2871,6.5512v-5.7954l-1.0931,-0.1255c-0.0839,-0.4625 0.2519,-0.7983 0.6722,-0.84z"></path><path d="M15.9411,28c4.9928,0 9.5332,-2.6113 12.0505,-6.7883v3.7883h2.0084v-7h-7v2h3.3729c-2.1349,3.6848 -6.0813,6 -10.4318,6c-3.2185,0 -6.24492,-1.248 -8.52105,-3.5146l-1.42005,1.4141c2.65512,2.6445 6.1857,4.1005 9.9411,4.1005z"></path><path d="M16.0589,4c-4.9928,0 -9.53325,2.6113 -12.05049,6.7883v-3.7883h-2.00841v7h7v-2h-3.37291c2.13494,-3.6848 6.08131,-6 10.43181,-6c3.2185,0 6.2449,1.248 8.5211,3.5146l1.42,-1.4141c-2.6551,-2.6445 -6.1857,-4.1005 -9.9411,-4.1005z"></path></g></g></svg>