<svg version="1.1" xmlns="http://www.w3.org/2000/svg" xmlns:xlink="http://www.w3.org/1999/xlink" width="32" height="32" viewBox="0,0,256,256"><g fill="none" fill-rule="nonzero" stroke="#2d3c84" stroke-width="none" stroke-linecap="butt" stroke-linejoin="miter" stroke-miterlimit="10" stroke-dasharray="" stroke-dashoffset="0" font-family="none" font-weight="none" font-size="none" text-anchor="none" style="mix-blend-mode: normal"><g transform="scale(8,8)"><path d="M19,11h-15c-1.10457,0 -2,0.8954 -2,2v6c0,1.1046 0.89543,2 2,2h15" stroke-width="2"></path><path d="M25,11h3c1.1046,0 2,0.8954 2,2v6c0,1.1046 -0.8954,2 -2,2h-3" stroke-width="2"></path><path d="M13,16h-8" stroke-width="4"></path><path d="M27,27h-3c-1.1046,0 -2,-0.8954 -2,-2v-18c0,-1.10457 0.8954,-2 2,-2h3" stroke-width="2"></path><path d="M17,27h3c1.1046,0 2,-0.8954 2,-2v-18c0,-1.10457 -0.8954,-2 -2,-2h-3" stroke-width="2"></path></g></g></svg>