<svg version="1.1" xmlns="http://www.w3.org/2000/svg" xmlns:xlink="http://www.w3.org/1999/xlink" width="32px" height="32px" viewBox="0,0,256,256"><g fill="#2d3c84" fill-rule="nonzero" stroke="none" stroke-width="1" stroke-linecap="butt" stroke-linejoin="miter" stroke-miterlimit="10" stroke-dasharray="" stroke-dashoffset="0" font-family="none" font-weight="none" font-size="none" text-anchor="none" style="mix-blend-mode: normal"><g transform="translate(-0.00016,-0.00004)"><g><g transform="translate(0,0.03103) scale(8,8)"><g id="surface1"><path d="M29.41016,21.67188l-19.07031,-19.09375c-0.375,-0.375 -0.88281,-0.58594 -1.41406,-0.58594c-0.53125,0 -1.03906,0.21094 -1.41406,0.58594l-4.92187,4.93359c-0.77344,0.77734 -0.77344,2.03906 0,2.81641l19.07031,19.09375c0.37891,0.37109 0.88672,0.58203 1.41797,0.57813c0.53125,0 1.03516,-0.20703 1.41016,-0.57812l4.92188,-4.93359c0.77344,-0.77734 0.77344,-2.03906 0,-2.81641zM23.07813,28l-19.07812,-19.07812l4.92188,-4.92187l3.78906,3.78906l-2.25,2.21094l1.41016,1.41016l2.25,-2.21094l4.12891,4.12891l-2.25,2.25l1.42188,1.42188l2.25,-2.25l4.12891,4.12891l-2.25,2.25l1.44922,1.41016l2.25,-2.25l2.75,2.78906zM23.07813,28"></path></g></g></g></g></g></svg>