<?xml version="1.0" encoding="UTF-8"?>
<svg xmlns="http://www.w3.org/2000/svg" xmlns:xlink="http://www.w3.org/1999/xlink" width="32px" height="32px" viewBox="0 0 32 32" version="1.1">
<g id="surface1">
<path style=" stroke:none;fill-rule:nonzero;fill:rgb(0%,0%,0%);fill-opacity:1;" d="M 30 30 L 24 30 L 24 28 L 28 28 L 28 4 L 24 4 L 24 2 L 30 2 Z M 30 30 "/>
<path style=" stroke:none;fill-rule:nonzero;fill:rgb(0%,0%,0%);fill-opacity:1;" d="M 24.910156 19.589844 C 24.609375 18.136719 23.613281 16.925781 22.25 16.351562 C 21.128906 15.882812 19.871094 15.882812 18.75 16.351562 C 18.527344 16.449219 18.3125 16.566406 18.109375 16.699219 L 15.300781 13.890625 C 16.53125 11.9375 16.101562 9.375 14.300781 7.933594 C 12.496094 6.492188 9.898438 6.636719 8.265625 8.265625 C 6.636719 9.898438 6.492188 12.496094 7.933594 14.300781 C 9.375 16.101562 11.9375 16.53125 13.890625 15.300781 L 16.699219 18.109375 C 16.078125 19.089844 15.859375 20.273438 16.089844 21.410156 C 16.390625 22.863281 17.386719 24.074219 18.75 24.648438 C 19.871094 25.117188 21.128906 25.117188 22.25 24.648438 C 23.613281 24.074219 24.609375 22.863281 24.910156 21.410156 C 25.03125 20.808594 25.03125 20.191406 24.910156 19.589844 Z M 11.5 14 C 10.121094 14 9 12.878906 9 11.5 C 9 10.121094 10.121094 9 11.5 9 C 12.878906 9 14 10.121094 14 11.5 C 14 12.878906 12.878906 14 11.5 14 Z M 11.5 14 "/>
<path style=" stroke:none;fill-rule:nonzero;fill:rgb(0%,0%,0%);fill-opacity:1;" d="M 8 30 L 2 30 L 2 2 L 8 2 L 8 4 L 4 4 L 4 28 L 8 28 Z M 8 30 "/>
</g>
</svg>
