<svg version="1.1" xmlns="http://www.w3.org/2000/svg" xmlns:xlink="http://www.w3.org/1999/xlink" width="32px" height="32px" viewBox="0,0,256,256"><g fill="#ffffff" fill-rule="nonzero" stroke="none" stroke-width="1" stroke-linecap="butt" stroke-linejoin="miter" stroke-miterlimit="10" stroke-dasharray="" stroke-dashoffset="0" font-family="none" font-weight="none" font-size="none" text-anchor="none" style="mix-blend-mode: normal"><g transform="scale(8,8)"><g id="surface1"><path d="M30,30h-6v-2h4v-24h-4v-2h6zM30,30"></path><path d="M24.91016,19.58984c-0.30078,-1.45312 -1.29687,-2.66406 -2.66016,-3.23828c-1.12109,-0.46875 -2.37891,-0.46875 -3.5,0c-0.22266,0.09766 -0.4375,0.21484 -0.64062,0.34766l-2.80859,-2.80859c1.23047,-1.95312 0.80078,-4.51562 -1,-5.95703c-1.80469,-1.44141 -4.40234,-1.29687 -6.03516,0.33203c-1.62891,1.63281 -1.77344,4.23047 -0.33203,6.03516c1.44141,1.80078 4.00391,2.23047 5.95703,1l2.80859,2.80859c-0.62109,0.98047 -0.83984,2.16406 -0.60937,3.30078c0.30078,1.45313 1.29688,2.66406 2.66016,3.23828c1.12109,0.46875 2.37891,0.46875 3.5,0c1.36328,-0.57422 2.35938,-1.78516 2.66016,-3.23828c0.12109,-0.60156 0.12109,-1.21875 0,-1.82031zM11.5,14c-1.37891,0 -2.5,-1.12109 -2.5,-2.5c0,-1.37891 1.12109,-2.5 2.5,-2.5c1.37891,0 2.5,1.12109 2.5,2.5c0,1.37891 -1.12109,2.5 -2.5,2.5zM11.5,14"></path><path d="M8,30h-6v-28h6v2h-4v24h4zM8,30"></path></g></g></g></svg>