<svg version="1.1" xmlns="http://www.w3.org/2000/svg" xmlns:xlink="http://www.w3.org/1999/xlink" width="32" height="32" viewBox="0,0,256,256"><g fill="none" fill-rule="nonzero" stroke="none" stroke-width="1" stroke-linecap="butt" stroke-linejoin="miter" stroke-miterlimit="10" stroke-dasharray="" stroke-dashoffset="0" font-family="none" font-weight="none" font-size="none" text-anchor="none" style="mix-blend-mode: normal"><g><g><g transform="scale(8,8)"><path d="M16,13c-3.4207,0 -6,1.5049 -6,3.5v8c0,1.9951 2.5793,3.5 6,3.5c3.4207,0 6,-1.5049 6,-3.5v-8c0,-1.9951 -2.5793,-3.5 -6,-3.5zM16,15c2.4814,0 4,0.9712 4,1.5c0,0.5288 -1.5186,1.5 -4,1.5c-2.4814,0 -4,-0.9712 -4,-1.5c0,-0.5288 1.5186,-1.5 4,-1.5zM16,26c-2.4814,0 -4,-0.9712 -4,-1.5v-1.3525c1.0469,0.5342 2.4331,0.8525 4,0.8525c1.5669,0 2.9531,-0.3184 4,-0.8525v1.3525c0,0.5288 -1.5186,1.5 -4,1.5zM16,22c-2.4814,0 -4,-0.9712 -4,-1.5v-1.3525c1.0469,0.5342 2.4331,0.8525 4,0.8525c1.5669,0 2.9531,-0.3184 4,-0.8525v1.3525c0,0.5288 -1.5186,1.5 -4,1.5z" fill="#2d3c84"></path><path d="M30,15.5c0,3.08 -2.14,5.65 -5.0099,6.3199v-2.0699c1.75,-0.62 3.0099,-2.28 3.0099,-4.25c0,-2.33 -1.83,-4.29 -4.15,-4.4801l-0.81,-0.0599l-0.1,-0.8099c-0.43,-3.5 -3.42,-6.15 -6.94,-6.15c-3.53,0 -6.52,2.65 -6.95,6.15l-0.1,0.8099l-0.81,0.0599c-2.32,0.1901 -4.14,2.1501 -4.14,4.4801c0,1.96 1.25,3.62 2.9901,4.24v2.08c-2.86,-0.6799 -4.9901,-3.25 -4.9901,-6.3199c0,-3.1 2.22,-5.75 5.2,-6.36c0.86,-4.1201 4.52,-7.14 8.8,-7.14c4.27,0 7.9301,3.0199 8.8,7.14c2.97,0.61 5.2,3.26 5.2,6.36z" fill="#2d3c84"></path><rect x="0" y="0" width="32" height="32" id="_Transparent_Rectangle_" fill="none"></rect></g></g></g></g></svg>