<svg width="32" height="32" viewBox="0 0 32 32" fill="none" xmlns="http://www.w3.org/2000/svg">
<path d="M20 16C17.7939 16 16 14.2056 16 12C16 9.7944 17.7939 8 20 8C22.2061 8 24 9.7944 24 12C24 14.2056 22.2061 16 20 16ZM20 10C18.8975 10 18 10.897 18 12C18 13.103 18.8975 14 20 14C21.1025 14 22 13.103 22 12C22 10.897 21.1025 10 20 10Z" fill="black"/>
<path d="M14 11H7V4H14V11ZM9 9H12V6H9V9Z" fill="black"/>
<path d="M19 27H13C11.897 27 11 26.1025 11 25V20.5352L5.8906 17.129C5.333 16.7569 5 16.1349 5 15.4649V12.0001H7V15.4649L12.1094 18.8711C12.667 19.2432 13 19.8652 13 20.5352V25H19V20.5352C19 19.8653 19.333 19.2432 19.8906 18.8711L25 15.4649V10.0001H27V15.4649C27 16.1348 26.667 16.7569 26.1094 17.129L21 20.5352V25C21 26.1025 20.1025 27 19 27Z" fill="black"/>
</svg>
