<svg version="1.1" xmlns="http://www.w3.org/2000/svg" xmlns:xlink="http://www.w3.org/1999/xlink" width="32" height="32" viewBox="0,0,256,256"><g fill="#2d3c84" fill-rule="nonzero" stroke="none" stroke-width="1" stroke-linecap="butt" stroke-linejoin="miter" stroke-miterlimit="10" stroke-dasharray="" stroke-dashoffset="0" font-family="none" font-weight="none" font-size="none" text-anchor="none" style="mix-blend-mode: normal"><g><g><g transform="translate(0,4) scale(8,8)"><path d="M20,16c-2.2061,0 -4,-1.7944 -4,-4c0,-2.2056 1.7939,-4 4,-4c2.2061,0 4,1.7944 4,4c0,2.2056 -1.7939,4 -4,4zM20,10c-1.1025,0 -2,0.897 -2,2c0,1.103 0.8975,2 2,2c1.1025,0 2,-0.897 2,-2c0,-1.103 -0.8975,-2 -2,-2z"></path><path d="M14,11h-7v-7h7zM9,9h3v-3h-3z"></path><path d="M19,27h-6c-1.103,0 -2,-0.8975 -2,-2v-4.4648l-5.1094,-3.4062c-0.5576,-0.3721 -0.8906,-0.9941 -0.8906,-1.6641v-3.4648h2v3.4648l5.1094,3.4062c0.5576,0.3721 0.8906,0.9941 0.8906,1.6641v4.4648h6v-4.4648c0,-0.6699 0.333,-1.292 0.8906,-1.6641l5.1094,-3.4062v-5.4648h2v5.4648c0,0.6699 -0.333,1.292 -0.8906,1.6641l-5.1094,3.4062v4.4648c0,1.1025 -0.8975,2 -2,2z"></path></g></g></g></g></svg>