<?xml version="1.0" encoding="UTF-8"?>
<svg xmlns="http://www.w3.org/2000/svg" xmlns:xlink="http://www.w3.org/1999/xlink" width="16px" height="16px" viewBox="0 0 16 16" version="1.1">
  <g id="surface1" transform="scale(-1, 1)" transform-origin="8 8">
    <path style="stroke:none;fill-rule:nonzero;fill:rgb(0%,0%,0%);fill-opacity:1;" 
          d="M 14.667969 13.332031 C 14.667969 13.703125 14.367188 14 14 14 C 13.632812 14 13.332031 13.703125 13.332031 13.332031 L 13.332031 2.667969 C 13.332031 2.296875 13.632812 2 14 2 C 14.367188 2 14.667969 2.296875 14.667969 2.667969 Z M 2 8.667969 L 9.722656 8.667969 L 8.195312 10.195312 C 8.023438 10.363281 7.953125 10.609375 8.011719 10.84375 C 8.074219 11.078125 8.257812 11.257812 8.488281 11.320312 C 8.722656 11.378906 8.96875 11.3125 9.136719 11.136719 L 11.804688 8.472656 C 12.066406 8.210938 12.066406 7.789062 11.804688 7.527344 L 9.136719 4.863281 C 8.96875 4.6875 8.722656 4.621094 8.488281 4.679688 C 8.257812 4.742188 8.074219 4.921875 8.011719 5.15625 C 7.953125 5.390625 8.023438 5.636719 8.195312 5.804688 L 9.722656 7.332031 L 2 7.332031 C 1.632812 7.332031 1.332031 7.632812 1.332031 8 C 1.332031 8.367188 1.632812 8.667969 2 8.667969 Z M 2 8.667969 "/>
  </g>
</svg>