<?xml version="1.0" encoding="UTF-8"?>
<svg xmlns="http://www.w3.org/2000/svg" xmlns:xlink="http://www.w3.org/1999/xlink" width="16px" height="16px" viewBox="0 0 16 16" version="1.1">
<defs>
<clipPath id="clip1">
  <path d="M 3 4 L 13 4 L 13 12 L 3 12 Z M 3 4 "/>
</clipPath>
<clipPath id="clip2">
  <path d="M 3.878906 0 L 12.121094 0 C 14.261719 0 16 1.738281 16 3.878906 L 16 12.121094 C 16 14.261719 14.261719 16 12.121094 16 L 3.878906 16 C 1.738281 16 0 14.261719 0 12.121094 L 0 3.878906 C 0 1.738281 1.738281 0 3.878906 0 Z M 3.878906 0 "/>
</clipPath>
<clipPath id="clip3">
  <path d="M 8 0 L 16 0 L 16 8 L 8 8 Z M 8 0 "/>
</clipPath>
<clipPath id="clip4">
  <path d="M 3.878906 0 L 12.121094 0 C 14.261719 0 16 1.738281 16 3.878906 L 16 12.121094 C 16 14.261719 14.261719 16 12.121094 16 L 3.878906 16 C 1.738281 16 0 14.261719 0 12.121094 L 0 3.878906 C 0 1.738281 1.738281 0 3.878906 0 Z M 3.878906 0 "/>
</clipPath>
</defs>
<g id="surface1">
<g clip-path="url(#clip1)" clip-rule="nonzero">
<g clip-path="url(#clip2)" clip-rule="nonzero">
<path style=" stroke:none;fill-rule:nonzero;fill:rgb(0%,0%,0%);fill-opacity:1;" d="M 9.882812 7.632812 L 5.15625 7.632812 L 5.15625 5.765625 L 9.882812 5.765625 C 10.160156 5.765625 10.351562 5.8125 10.449219 5.894531 C 10.542969 5.980469 10.605469 6.136719 10.605469 6.363281 L 10.605469 7.035156 C 10.605469 7.277344 10.542969 7.429688 10.449219 7.515625 C 10.351562 7.597656 10.160156 7.636719 9.882812 7.636719 Z M 10.207031 4 L 3.152344 4 L 3.152344 12 L 5.15625 12 L 5.15625 9.398438 L 8.851562 9.398438 L 10.605469 12 L 12.847656 12 L 10.914062 9.386719 C 11.628906 9.28125 11.949219 9.0625 12.210938 8.703125 C 12.476562 8.339844 12.609375 7.765625 12.609375 7 L 12.609375 6.398438 C 12.609375 5.941406 12.558594 5.582031 12.476562 5.308594 C 12.390625 5.03125 12.25 4.792969 12.042969 4.574219 C 11.828125 4.371094 11.589844 4.226562 11.300781 4.132812 C 11.011719 4.046875 10.652344 4 10.207031 4 Z M 10.207031 4 "/>
</g>
</g>
<g clip-path="url(#clip3)" clip-rule="nonzero">
<g clip-path="url(#clip4)" clip-rule="nonzero">
<path style=" stroke:none;fill-rule:nonzero;fill:rgb(0%,0%,0%);fill-opacity:1;" d="M 24 0 C 24 4.417969 20.417969 8 16 8 C 15.101562 8 14.238281 7.851562 13.433594 7.578125 C 13.449219 7.390625 13.457031 7.195312 13.457031 7 L 13.457031 6.398438 C 13.457031 5.890625 13.402344 5.441406 13.289062 5.058594 C 13.164062 4.648438 12.949219 4.296875 12.660156 3.992188 L 12.644531 3.976562 L 12.625 3.960938 C 12.320312 3.667969 11.972656 3.460938 11.566406 3.328125 L 11.554688 3.320312 L 11.539062 3.316406 C 11.152344 3.207031 10.710938 3.152344 10.207031 3.152344 L 8.644531 3.152344 C 8.230469 2.183594 8 1.121094 8 0 C 8 -4.417969 11.582031 -8 16 -8 C 20.417969 -8 24 -4.417969 24 0 Z M 24 0 "/>
</g>
</g>
<path style="fill:none;stroke-width:2;stroke-linecap:butt;stroke-linejoin:miter;stroke:rgb(0%,0%,0%);stroke-opacity:1;stroke-miterlimit:4;" d="M 32.000977 0.999023 L 99.999023 0.999023 C 117.111328 0.999023 131.000977 14.888672 131.000977 32.000977 L 131.000977 99.999023 C 131.000977 117.111328 117.111328 131.000977 99.999023 131.000977 L 32.000977 131.000977 C 14.888672 131.000977 0.999023 117.111328 0.999023 99.999023 L 0.999023 32.000977 C 0.999023 14.888672 14.888672 0.999023 32.000977 0.999023 Z M 32.000977 0.999023 " transform="matrix(0.121212,0,0,0.121212,0,0)"/>
</g>
</svg>
