<?xml version="1.0" encoding="UTF-8"?>
<svg xmlns="http://www.w3.org/2000/svg" xmlns:xlink="http://www.w3.org/1999/xlink" width="16px" height="16px" viewBox="0 0 33 32" version="1.1">
<defs>
<linearGradient id="linear0" gradientUnits="userSpaceOnUse" x1="243.350006" y1="261.618011" x2="83.149002" y2="169.548996" gradientTransform="matrix(0.128812,0,0,0.130113,0.0102978,-0.00520452)">
<stop offset="0" style="stop-color:rgb(0%,0.0%,0%);stop-opacity:1;"/>
<stop offset="0.92" style="stop-color:rgb(0.0%,0.0%,0.0%);stop-opacity:1;"/>
<stop offset="1" style="stop-color:rgb(0.0%,0.0%,0%);stop-opacity:1;"/>
</linearGradient>
<linearGradient id="linear1" gradientUnits="userSpaceOnUse" x1="12.633" y1="-15.48" x2="172.873001" y2="76.588997" gradientTransform="matrix(0.128812,0,0,0.130113,0.0102978,-0.00520452)">
<stop offset="0" style="stop-color:rgb(0%,0.0%,0%);stop-opacity:1;"/>
<stop offset="0.92" style="stop-color:rgb(0.0%,0.0%,0.0%);stop-opacity:1;"/>
<stop offset="1" style="stop-color:rgb(0.0%,0.0%,0%);stop-opacity:1;"/>
</linearGradient>
</defs>
<g id="surface1">
<path style=" stroke:none;fill-rule:nonzero;fill:url(#linear0);" d="M 1.183594 24.429688 C 0.84375 24.988281 0.457031 25.644531 0.15625 26.164062 C 0.0859375 26.277344 0.046875 26.40625 0.0273438 26.539062 C 0.0078125 26.671875 0.015625 26.808594 0.046875 26.941406 C 0.078125 27.070312 0.132812 27.195312 0.210938 27.304688 C 0.289062 27.414062 0.386719 27.507812 0.5 27.578125 L 7.328125 31.832031 C 7.445312 31.90625 7.578125 31.957031 7.71875 31.976562 C 7.855469 32 7.996094 31.996094 8.128906 31.960938 C 8.265625 31.925781 8.394531 31.867188 8.503906 31.785156 C 8.617188 31.699219 8.710938 31.59375 8.78125 31.472656 C 9.058594 31.011719 9.40625 30.410156 9.78125 29.769531 C 12.488281 25.285156 15.234375 25.835938 20.132812 28.1875 L 26.910156 31.433594 C 27.167969 31.558594 27.460938 31.570312 27.726562 31.472656 C 27.859375 31.421875 27.980469 31.347656 28.082031 31.25 C 28.183594 31.152344 28.265625 31.035156 28.324219 30.90625 L 31.574219 23.496094 C 31.632812 23.371094 31.660156 23.238281 31.664062 23.101562 C 31.671875 22.964844 31.648438 22.828125 31.601562 22.703125 C 31.554688 22.574219 31.488281 22.457031 31.398438 22.355469 C 31.304688 22.253906 31.199219 22.171875 31.074219 22.109375 C 29.648438 21.429688 26.804688 20.09375 24.257812 18.835938 C 14.988281 14.320312 7.167969 14.617188 1.183594 24.429688 Z M 1.183594 24.429688 "/>
<path style=" stroke:none;fill-rule:nonzero;fill:url(#linear1);" d="M 31.8125 7.589844 C 32.15625 7.03125 32.539062 6.375 32.839844 5.859375 C 32.910156 5.738281 32.953125 5.609375 32.972656 5.472656 C 32.992188 5.335938 32.984375 5.195312 32.953125 5.0625 C 32.917969 4.929688 32.859375 4.804688 32.777344 4.695312 C 32.695312 4.585938 32.59375 4.492188 32.476562 4.421875 L 25.65625 0.167969 C 25.535156 0.09375 25.40625 0.0429688 25.269531 0.0234375 C 25.128906 0 24.988281 0.0078125 24.855469 0.0390625 C 24.71875 0.0742188 24.589844 0.132812 24.480469 0.214844 C 24.367188 0.300781 24.273438 0.40625 24.203125 0.527344 C 23.933594 0.988281 23.578125 1.589844 23.203125 2.230469 C 20.484375 6.734375 17.765625 6.1875 12.859375 3.832031 L 6.089844 0.585938 C 5.964844 0.523438 5.828125 0.488281 5.6875 0.480469 C 5.550781 0.472656 5.410156 0.492188 5.277344 0.539062 C 5.144531 0.585938 5.023438 0.660156 4.921875 0.753906 C 4.816406 0.847656 4.734375 0.960938 4.675781 1.089844 L 1.421875 8.519531 C 1.3125 8.769531 1.300781 9.054688 1.394531 9.316406 C 1.441406 9.445312 1.511719 9.5625 1.601562 9.664062 C 1.691406 9.765625 1.800781 9.847656 1.921875 9.910156 C 3.355469 10.589844 6.199219 11.925781 8.742188 13.1875 C 17.984375 17.699219 25.832031 17.402344 31.8125 7.589844 Z M 31.8125 7.589844 "/>
</g>
</svg>
